<?xml version="1.0" standalone="no"?>
<!DOCTYPE svg PUBLIC "-//W3C//DTD SVG 20010904//EN"
 "http://www.w3.org/TR/2001/REC-SVG-20010904/DTD/svg10.dtd">
<svg version="1.0" xmlns="http://www.w3.org/2000/svg"
 width="277.000000pt" height="277.000000pt" viewBox="0 0 277.000000 277.000000"
 preserveAspectRatio="xMidYMid meet">
<metadata>
Created by potrace 1.11, written by Peter Selinger 2001-2013
</metadata>
<g transform="translate(0.000000,277.000000) scale(0.100000,-0.100000)"
fill="#000000" stroke="none">
<path d="M1400 2101 c0 -4 -13 -21 -28 -38 -24 -24 -35 -29 -65 -25 -28 3 -48
-3 -84 -24 -61 -37 -108 -38 -192 -6 -117 44 -177 28 -218 -57 -30 -62 -47
-82 -82 -101 -19 -10 -22 -10 -15 2 4 7 -2 5 -13 -4 -11 -10 -27 -18 -35 -18
-9 0 -18 -5 -20 -11 -2 -7 -17 -13 -32 -13 -16 -1 -35 -12 -46 -26 -14 -19
-21 -22 -32 -12 -15 12 -60 13 -52 1 2 -4 14 -5 27 -2 20 4 20 3 4 -7 -21 -13
-47 2 -47 27 0 10 -8 13 -30 9 -21 -3 -30 0 -30 9 0 8 -4 16 -9 19 -5 4 -7 -3
-4 -13 4 -16 0 -19 -26 -17 -26 2 -33 -2 -38 -23 -4 -15 -2 -26 5 -29 7 -2 12
-10 12 -18 0 -8 5 -14 10 -14 6 0 10 -9 10 -21 0 -11 4 -18 9 -15 11 7 23 -22
15 -36 -9 -14 -47 -27 -59 -20 -21 13 -34 10 -27 -6 4 -11 7 -12 10 -3 3 9 10
7 25 -6 12 -10 17 -12 12 -4 -6 10 -4 13 7 9 8 -4 20 2 27 13 11 19 31 18 31
-2 0 -6 -4 -8 -9 -5 -5 4 -19 -10 -31 -30 -18 -27 -23 -54 -25 -115 -2 -45 1
-77 6 -73 5 3 9 1 9 -5 0 -5 -5 -13 -11 -17 -8 -4 -7 -9 2 -16 11 -8 10 -9 -4
-4 -14 4 -16 1 -13 -19 3 -14 0 -27 -5 -31 -5 -3 -7 -10 -4 -15 3 -5 -1 -6
-10 -2 -13 5 -14 7 -3 14 10 7 10 9 -1 9 -11 0 -9 4 5 16 18 15 18 15 -3 5
-12 -7 -20 -18 -18 -28 2 -10 4 -24 4 -31 1 -8 6 -10 13 -6 10 6 10 5 1 -8 -7
-8 -10 -17 -7 -21 3 -3 -2 -4 -13 -3 -10 2 -24 -1 -32 -7 -10 -9 -17 -7 -27 8
-8 10 -14 15 -14 10 0 -5 8 -17 17 -28 17 -19 17 -20 -3 -9 -12 6 -24 8 -28 5
-3 -3 -6 -1 -6 5 0 7 -4 12 -9 12 -6 0 -9 -9 -8 -19 0 -11 6 -17 14 -14 7 3
13 0 13 -7 0 -6 4 -9 8 -6 4 2 8 -4 9 -14 1 -13 -3 -17 -15 -13 -14 4 -15 3
-2 -5 8 -6 19 -7 25 -2 6 4 14 3 20 -4 13 -15 17 -36 7 -35 -20 3 -21 -3 -2
-23 11 -12 18 -29 15 -37 -4 -11 -3 -11 9 -2 11 9 16 9 22 0 5 -8 3 -9 -6 -4
-9 6 -11 4 -5 -5 6 -10 11 -10 20 4 11 15 13 15 19 1 4 -13 10 -14 26 -5 16 8
20 8 18 -2 -2 -9 6 -12 25 -10 18 2 26 -1 22 -7 -3 -6 -1 -11 5 -11 6 0 9 -4
6 -8 -2 -4 0 -14 5 -22 6 -10 8 -4 4 19 -5 27 -3 32 7 24 7 -5 20 -9 28 -8 17
1 52 -34 45 -45 -3 -5 3 -7 12 -6 13 2 18 12 18 33 -1 21 3 29 11 26 7 -3 12
-16 11 -30 -1 -16 4 -28 13 -30 9 -3 11 -1 5 4 -5 4 -11 15 -13 23 -3 11 1 11
16 -3 10 -9 24 -17 30 -17 7 0 12 -5 12 -11 0 -5 5 -7 10 -4 6 3 10 2 10 -3 0
-5 14 -12 31 -16 23 -4 29 -10 23 -19 -5 -7 -2 -6 6 3 9 9 23 16 32 14 9 -1
19 4 22 12 3 8 15 14 26 14 11 0 20 5 20 11 0 8 6 7 17 -2 14 -12 16 -12 9 1
-4 9 -2 8 7 -2 8 -10 18 -14 22 -10 4 4 5 0 3 -8 -3 -8 -10 -14 -15 -13 -5 1
-10 -5 -10 -13 0 -12 3 -12 17 1 9 8 20 12 23 8 4 -3 7 -1 7 5 0 6 7 9 15 6
12 -5 13 -10 4 -20 -6 -8 -16 -11 -22 -7 -5 3 -7 1 -4 -5 11 -16 40 -8 43 13
1 10 8 23 15 29 9 8 10 6 6 -12 -4 -18 -2 -21 7 -13 9 7 17 7 26 -2 8 -6 6 -2
-4 10 -17 21 -17 22 3 32 13 7 28 8 45 2 18 -7 28 -6 36 5 7 7 17 14 22 14 6
0 6 -6 -1 -14 -6 -8 -13 -28 -16 -45 -2 -17 -6 -35 -9 -40 -3 -5 1 -14 9 -21
8 -7 12 -16 9 -21 -10 -16 9 -9 23 9 13 15 13 15 3 -6 -7 -13 -9 -26 -6 -30 8
-7 201 0 201 8 0 1 31 4 70 6 38 3 73 10 77 17 6 9 8 9 8 0 0 -12 37 -12 58 1
7 4 10 11 7 16 -3 5 0 12 6 16 7 4 9 3 5 -4 -3 -6 -2 -13 3 -17 10 -6 37 33
33 48 -1 4 2 7 7 7 10 0 27 39 23 53 -1 4 5 7 13 7 9 0 27 7 41 16 23 16 24
16 18 -2 -5 -17 -4 -17 8 1 7 11 20 21 28 23 8 2 20 8 25 14 7 8 5 8 -5 3 -8
-5 -12 -5 -8 0 4 4 3 14 -3 22 -6 7 -8 13 -4 13 4 0 1 8 -6 18 -13 15 -12 16
4 3 11 -9 17 -10 17 -2 0 6 -7 14 -15 17 -16 6 -11 24 6 24 6 0 7 -5 3 -11 -4
-7 -1 -10 7 -7 8 3 13 11 11 17 -1 7 2 10 8 6 7 -4 7 -13 -1 -27 -7 -13 -7
-18 -1 -14 6 3 13 -2 15 -11 3 -10 5 -5 4 11 -1 16 4 31 11 33 6 3 10 -1 9 -9
-2 -7 -2 -10 0 -5 3 4 10 4 16 0 8 -4 7 -1 -1 9 -9 11 -9 17 -2 20 6 2 13 15
15 28 7 46 11 59 20 67 4 4 5 2 0 -6 -6 -10 -4 -12 4 -6 9 5 9 11 3 17 -6 6
-8 16 -6 23 3 7 1 16 -5 20 -6 3 -11 12 -11 18 0 7 4 6 10 -3 7 -10 10 -11 10
-2 0 7 -7 15 -15 18 -20 8 -19 22 3 27 9 2 7 3 -5 2 -23 -2 -45 15 -42 31 7
41 -20 64 -46 38 -8 -9 -15 -11 -15 -5 0 5 -10 8 -22 6 -16 -4 -19 -2 -10 7
23 23 12 29 -14 9 -24 -19 -54 -19 -54 1 0 5 -5 6 -10 3 -6 -4 -8 -10 -5 -15
3 -5 -4 -7 -17 -5 -25 5 -60 35 -40 35 7 0 12 -4 12 -10 0 -5 4 -10 8 -10 9 0
9 70 0 85 -9 15 14 42 35 42 10 0 33 -21 52 -47 27 -37 39 -46 64 -45 16 0 33
4 37 8 11 10 26 9 19 -2 -3 -6 3 -9 14 -8 11 0 17 5 15 9 -3 4 1 8 9 8 20 0
13 71 -7 82 -9 5 -13 15 -9 25 5 12 2 15 -8 11 -19 -7 -50 34 -39 52 4 7 6 19
3 27 -3 7 1 13 8 13 9 1 7 6 -6 17 l-20 16 20 -7 c16 -6 18 -5 8 5 -7 7 -13
17 -13 21 0 11 23 6 33 -7 5 -6 7 -4 4 5 -2 8 -9 15 -15 15 -6 0 -17 6 -23 13
-10 9 -10 12 -1 12 7 0 3 9 -8 20 -12 12 -18 25 -15 30 3 6 -1 7 -9 4 -11 -4
-16 0 -17 12 0 12 -3 14 -6 6 -4 -10 -9 -8 -20 7 -8 12 -18 19 -23 16 -5 -3
-13 3 -19 12 -6 10 -11 13 -11 8 0 -6 5 -16 12 -23 9 -9 8 -12 -5 -12 -9 0
-17 4 -17 9 0 5 -17 27 -37 49 -21 22 -61 64 -89 94 -28 30 -57 64 -63 76 -12
22 -31 30 -31 13z m30 -34 c0 -7 16 -27 35 -44 19 -17 31 -33 28 -37 -4 -3 1
-6 10 -6 8 0 19 -9 22 -20 3 -11 11 -20 16 -20 6 0 8 -10 5 -22 -3 -13 -3 -17
0 -10 3 6 10 12 15 12 16 0 10 -18 -13 -41 -23 -21 -23 -21 -1 -10 12 6 23 16
26 23 3 10 8 10 18 -1 12 -12 12 -13 -1 -7 -8 4 -6 0 5 -10 20 -16 20 -16 -2
-11 -13 3 -23 2 -23 -2 0 -10 -34 -7 -37 3 -1 4 -12 16 -24 27 -12 10 -18 19
-13 19 5 0 -3 8 -16 17 -14 10 -33 28 -43 40 -10 13 -23 23 -28 23 -5 0 -19
10 -31 22 l-21 21 27 24 c30 26 46 29 46 10z m-880 -326 c0 -5 -12 -8 -27 -8
-25 0 -25 0 -8 13 18 13 35 11 35 -5z m-15 -21 c3 -5 -1 -10 -10 -10 -9 0 -13
5 -10 10 3 6 8 10 10 10 2 0 7 -4 10 -10z m1240 -321 c-4 -5 -1 -9 6 -9 7 0 9
-3 6 -6 -9 -9 -38 16 -31 27 3 5 10 7 15 3 5 -3 7 -10 4 -15z m-1465 -188 c0
-4 -9 -7 -20 -8 -19 -2 -26 8 -14 20 7 7 34 -2 34 -12z m155 -31 c-3 -5 -12
-10 -18 -10 -7 0 -6 4 3 10 19 12 23 12 15 0z m1336 -31 c-13 -11 -26 -17 -29
-14 -7 6 29 34 43 34 6 0 -1 -9 -14 -20z m-1245 -153 c6 -33 1 -33 -21 0 -9
15 -12 23 -6 20 6 -4 11 -2 11 5 0 20 11 3 16 -25z m564 6 c3 -2 -2 -3 -10 -2
-26 4 -40 0 -37 -9 3 -12 -17 -15 -21 -3 -2 6 6 13 18 17 12 4 17 11 13 18 -4
7 2 5 13 -3 10 -8 21 -16 24 -18z m364 -124 c-5 -8 -1 -9 12 -4 14 5 16 4 7
-5 -13 -13 -37 -3 -28 12 4 5 8 9 11 9 3 0 2 -5 -2 -12z m-284 -22 c0 -2 -8
-10 -17 -17 -16 -13 -17 -12 -4 4 13 16 21 21 21 13z"/>
<path d="M504 1804 c-18 -14 -18 -15 4 -4 12 6 22 13 22 15 0 8 -5 6 -26 -11z"/>
<path d="M563 1805 c0 -8 4 -12 9 -9 5 3 6 10 3 15 -9 13 -12 11 -12 -6z"/>
<path d="M1756 1808 c3 -5 10 -6 15 -3 13 9 11 12 -6 12 -8 0 -12 -4 -9 -9z"/>
<path d="M1815 1810 c3 -5 8 -10 11 -10 2 0 4 5 4 10 0 6 -5 10 -11 10 -5 0
-7 -4 -4 -10z"/>
<path d="M530 1796 c0 -2 7 -9 15 -16 13 -11 14 -10 9 4 -5 14 -24 23 -24 12z"/>
<path d="M1790 1681 c0 -5 7 -12 16 -15 14 -5 15 -4 4 9 -14 17 -20 19 -20 6z"/>
<path d="M353 1657 c0 -8 6 -14 14 -14 9 0 10 4 2 14 -6 7 -12 13 -14 13 -1 0
-2 -6 -2 -13z"/>
<path d="M1767 1646 c-3 -8 2 -20 11 -28 11 -9 14 -10 8 0 -4 6 -3 12 3 12 5
0 12 -6 14 -12 4 -10 6 -10 6 0 1 7 -6 15 -14 18 -8 4 -12 10 -9 15 3 5 1 9
-4 9 -6 0 -12 -6 -15 -14z"/>
<path d="M138 1623 c6 -2 18 -2 25 0 6 3 1 5 -13 5 -14 0 -19 -2 -12 -5z"/>
<path d="M250 1616 c0 -2 9 -6 20 -9 11 -3 20 -1 20 4 0 5 -9 9 -20 9 -11 0
-20 -2 -20 -4z"/>
<path d="M1825 1610 c-3 -6 1 -7 9 -4 18 7 21 14 7 14 -6 0 -13 -4 -16 -10z"/>
<path d="M176 1565 c4 -8 8 -15 10 -15 2 0 4 7 4 15 0 8 -4 15 -10 15 -5 0 -7
-7 -4 -15z"/>
<path d="M245 1550 c3 -4 16 -10 30 -12 13 -3 22 -2 20 2 -3 4 -16 10 -30 12
-13 3 -22 2 -20 -2z"/>
<path d="M300 1556 c0 -3 9 -10 19 -16 15 -7 22 -7 27 2 4 7 4 10 -1 6 -4 -4
-16 -3 -26 3 -11 5 -19 7 -19 5z"/>
<path d="M207 1543 c-11 -10 -8 -25 3 -18 6 3 10 0 10 -8 0 -8 13 -30 30 -48
16 -19 28 -39 25 -46 -2 -8 2 -10 12 -6 10 4 14 2 10 -4 -4 -6 0 -14 9 -17 8
-3 12 -10 9 -16 -11 -18 5 -32 21 -19 11 9 11 15 3 25 -6 7 -7 19 -3 25 4 8 3
9 -5 5 -15 -10 -53 32 -44 48 3 6 3 8 -2 4 -7 -7 -35 14 -35 27 0 4 -7 13 -15
22 -8 8 -13 19 -10 24 7 10 -8 12 -18 2z"/>
<path d="M1590 1535 c-7 -9 -8 -15 -1 -19 6 -4 7 -14 4 -23 -5 -13 -2 -15 13
-10 19 7 19 7 0 -8 -11 -8 -14 -15 -8 -15 7 0 12 -5 12 -11 0 -5 -4 -8 -8 -5
-5 3 -9 -1 -9 -9 0 -13 2 -13 17 0 14 13 18 13 31 -1 14 -13 18 -13 38 3 l22
18 -34 37 c-19 21 -32 39 -30 41 2 3 -5 7 -16 10 -11 3 -25 -1 -31 -8z m55
-35 c4 1 15 -10 25 -23 21 -27 15 -44 -8 -24 -13 10 -15 9 -9 -6 6 -17 6 -17
-17 0 -15 11 -21 22 -15 28 14 15 11 28 -7 21 -8 -3 -12 -2 -9 3 3 5 1 12 -5
16 -6 4 -7 11 -4 17 5 7 14 3 25 -11 10 -12 21 -21 24 -21z"/>
<path d="M1636 1485 c-9 -24 -8 -28 8 -22 7 3 20 0 27 -6 7 -7 5 -1 -6 13 -11
14 -20 26 -21 28 -1 2 -4 -4 -8 -13z"/>
<path d="M1856 1537 c3 -10 9 -15 12 -12 3 3 0 11 -7 18 -10 9 -11 8 -5 -6z"/>
<path d="M1718 1453 c9 -4 10 -8 2 -18 -14 -17 11 -15 33 3 10 9 17 10 22 2 3
-5 14 -10 23 -9 26 1 -27 21 -63 24 -16 2 -24 1 -17 -2z"/>
<path d="M1810 1420 c-8 -5 -12 -12 -9 -15 4 -3 12 1 19 10 14 17 11 19 -10 5z"/>
<path d="M1817 1393 c-10 -9 -9 -33 1 -33 4 0 8 9 9 20 2 21 0 24 -10 13z"/>
<path d="M255 1350 c-3 -5 -1 -10 4 -10 6 0 11 5 11 10 0 6 -2 10 -4 10 -3 0
-8 -4 -11 -10z"/>
<path d="M234 1283 c3 -20 21 -28 31 -14 4 7 0 8 -11 4 -11 -4 -15 -3 -10 5 3
6 2 13 -3 16 -5 4 -8 -2 -7 -11z"/>
<path d="M285 1279 c4 -10 -2 -19 -17 -26 -22 -11 -21 -11 7 -8 30 3 35 18 14
40 -7 7 -8 5 -4 -6z"/>
<path d="M1870 1236 c0 -2 7 -7 16 -10 8 -3 12 -2 9 4 -6 10 -25 14 -25 6z"/>
<path d="M1855 1209 c-4 -6 -4 -13 -1 -16 3 -4 6 -1 6 6 0 7 5 9 12 5 7 -4 8
-3 4 4 -9 15 -13 15 -21 1z"/>
<path d="M210 1131 c0 -6 4 -13 10 -16 6 -3 7 1 4 9 -7 18 -14 21 -14 7z"/>
<path d="M1839 1123 c-12 -16 -12 -17 2 -6 9 7 20 9 24 5 5 -4 5 -1 1 6 -9 16
-11 15 -27 -5z"/>
<path d="M215 1070 c-3 -5 -1 -10 4 -10 6 0 11 5 11 10 0 6 -2 10 -4 10 -3 0
-8 -4 -11 -10z"/>
<path d="M250 1070 c-12 -7 -10 -9 7 -7 12 0 19 5 17 9 -6 10 -6 10 -24 -2z"/>
<path d="M1741 1071 c-8 -5 -9 -11 -3 -15 5 -3 12 1 16 9 6 17 6 18 -13 6z"/>
<path d="M1790 1069 c0 -5 5 -7 10 -4 6 3 10 8 10 11 0 2 -4 4 -10 4 -5 0 -10
-5 -10 -11z"/>
<path d="M267 1029 c7 -7 15 -10 18 -7 3 3 -2 9 -12 12 -14 6 -15 5 -6 -5z"/>
<path d="M363 1019 c2 -6 7 -11 12 -11 6 -1 15 -7 20 -14 7 -9 15 -11 25 -4
13 8 13 11 1 22 -9 8 -11 9 -7 1 3 -6 2 -14 -3 -17 -5 -3 -12 1 -15 10 -3 8
-10 13 -15 10 -5 -4 -12 -1 -14 4 -4 7 -5 6 -4 -1z"/>
<path d="M310 1016 c0 -2 7 -7 16 -10 8 -3 12 -2 9 4 -6 10 -25 14 -25 6z"/>
<path d="M1740 1010 c-8 -5 -10 -10 -5 -10 6 0 17 5 25 10 8 5 11 10 5 10 -5
0 -17 -5 -25 -10z"/>
<path d="M1826 1012 c-3 -5 1 -9 9 -9 8 0 12 4 9 9 -3 4 -7 8 -9 8 -2 0 -6 -4
-9 -8z"/>
<path d="M475 999 c-4 -5 -4 -13 -1 -16 3 -4 6 0 6 8 0 11 2 11 10 -1 6 -9 10
-10 10 -3 0 17 -17 25 -25 12z"/>
<path d="M350 991 c0 -6 4 -13 10 -16 6 -3 7 1 4 9 -7 18 -14 21 -14 7z"/>
<path d="M506 973 c-6 -14 -5 -15 5 -6 7 7 10 15 7 18 -3 3 -9 -2 -12 -12z"/>
<path d="M1660 981 c0 -6 4 -13 10 -16 6 -3 7 1 4 9 -7 18 -14 21 -14 7z"/>
<path d="M1749 973 c-13 -16 -12 -17 4 -4 16 13 21 21 13 21 -2 0 -10 -8 -17
-17z"/>
<path d="M1696 971 c-4 -5 3 -7 14 -4 23 6 26 13 6 13 -8 0 -17 -4 -20 -9z"/>
<path d="M1000 960 c-10 -6 -5 -9 18 -8 22 1 29 4 20 9 -16 11 -20 11 -38 -1z"/>
<path d="M1630 966 c0 -2 8 -10 18 -17 15 -13 16 -12 3 4 -13 16 -21 21 -21
13z"/>
<path d="M796 928 c3 -5 10 -6 15 -3 13 9 11 12 -6 12 -8 0 -12 -4 -9 -9z"/>
<path d="M835 930 c3 -5 8 -10 11 -10 2 0 4 5 4 10 0 6 -5 10 -11 10 -5 0 -7
-4 -4 -10z"/>
<path d="M830 899 c0 -5 5 -7 10 -4 6 3 10 8 10 11 0 2 -4 4 -10 4 -5 0 -10
-5 -10 -11z"/>
<path d="M886 897 c3 -10 9 -15 12 -12 3 3 0 11 -7 18 -10 9 -11 8 -5 -6z"/>
<path d="M801 882 c-1 -8 -6 -10 -13 -6 -7 4 -10 4 -6 -1 9 -10 -19 -38 -31
-31 -5 3 -11 -1 -15 -9 -3 -8 -12 -15 -21 -15 -8 0 -15 -4 -15 -10 0 -5 -7
-10 -15 -10 -8 0 -15 -4 -15 -9 0 -21 18 -18 46 8 31 29 35 31 60 31 8 0 13 4
9 9 -3 6 2 14 11 19 9 5 14 15 11 23 -4 11 -6 11 -6 1z"/>
<path d="M675 870 c-3 -5 -1 -10 4 -10 6 0 11 5 11 10 0 6 -2 10 -4 10 -3 0
-8 -4 -11 -10z"/>
<path d="M825 869 c-4 -6 -4 -13 -1 -16 3 -4 6 -1 6 6 0 7 5 9 10 6 6 -3 10
-1 10 4 0 14 -17 14 -25 0z"/>
</g>
</svg>
