<?xml version="1.0" encoding="iso-8859-1"?>
<!-- Generator: Adobe Illustrator 22.1.0, SVG Export Plug-In . SVG Version: 6.00 Build 0)  -->
<svg version="1.1" id="&#x421;&#x43B;&#x43E;&#x439;_1"
	 xmlns="http://www.w3.org/2000/svg" xmlns:xlink="http://www.w3.org/1999/xlink" x="0px" y="0px" viewBox="0 0 12.676 8.625"
	 style="enable-background:new 0 0 12.676 8.625;" xml:space="preserve">
<g>
	<path d="M12.676,2.156V1.215h-0.051V0.316h-0.051V0h-0.367v0.316c0,0-8.867,0.063-10.414,0c-0.234,0-1.59,0.133-0.231,2.219
		c0,0,0.614,0.934-0.23,1.977C0.5,5.539,0.125,7.621,0.027,8.25H0v0.375h3.844V7.906c-1.66,0.305,1.144-3.559,1.019-2.91
		c0.094,0.023,0.184,0.039,0.282,0.039h1c0.621,0,1.441-0.66,1.441-1.277c0-0.27-0.098-0.516-0.254-0.707h4.949l0.16-0.59h0.211
		V2.176h-0.035l0.008-0.02H12.676z M6.148,4.488h-1c-0.074,0-0.144-0.012-0.21-0.031C4.996,4.113,5.039,3.804,5.07,3.566
		c0.086,0.278,0.25,0.567,0.571,0.696c0.023,0.007,0.047,0.011,0.07,0.011c0.074,0,0.148-0.047,0.176-0.121
		c0.039-0.098-0.012-0.207-0.11-0.246c-0.332-0.129-0.398-0.633-0.41-0.855h0.961c0.317,0.082,0.551,0.367,0.551,0.707
		C6.879,4.16,6.551,4.488,6.148,4.488L6.148,4.488z M11.277,2.461H6.34l0.855-0.285h4.082V2.461z M11.277,2.461"/>
</g>
</svg>
