<?xml version="1.0" encoding="utf-8"?>
<!-- Generator: Adobe Illustrator 22.1.0, SVG Export Plug-In . SVG Version: 6.00 Build 0)  -->
<svg version="1.1" id="Layer_1" xmlns="http://www.w3.org/2000/svg" xmlns:xlink="http://www.w3.org/1999/xlink" x="0px" y="0px"
	 viewBox="0 0 436.6 512" style="enable-background:new 0 0 436.6 512;" xml:space="preserve">
<style type="text/css">
	.st0{fill:#FFFFFF;}
	.st1{fill:#F5DC33;}
</style>
<g>
	<path class="st0" d="M428.7,88.4C358.3,69.1,287.4,39.1,223.8,1.5c-3.4-2-7.6-2-10.9,0C147.4,40.1,80.4,68.6,7.9,88.4
		C3.2,89.7,0,93.9,0,98.8v110c0,113.3,52.3,188.3,96.1,231.3c47.2,46.3,102.2,71.8,122.2,71.8c20,0,75-25.6,122.2-71.8
		c43.9-43,96.1-118,96.1-231.3v-110C436.6,93.9,433.4,89.7,428.7,88.4z M415.1,208.8c0,105.8-48.8,175.8-89.7,215.9
		c-46.4,45.5-96.1,65.7-107.1,65.7c-11,0-60.7-20.2-107.1-65.7c-40.9-40.1-89.7-110.1-89.7-215.9V107
		c69.3-19.7,133.8-47.1,196.8-83.7c61.4,35.6,129.2,64.4,196.8,83.7L415.1,208.8L415.1,208.8z"/>
	<path class="st1" d="M122.9,105.8c-2.2-5.5-8.4-8.3-14-6.1c-19.2,7.6-39,14.6-58.7,20.7c-4.5,1.4-7.5,5.6-7.5,10.3v41.6
		c0,5.9,4.8,10.8,10.8,10.8s10.8-4.8,10.8-10.8v-33.7c17.7-5.7,35.3-12,52.6-18.8C122.3,117.6,125,111.3,122.9,105.8z"/>
	<path class="st1" d="M143.3,107.8c1.4,0,2.9-0.3,4.3-0.9l0.2-0.1c5.4-2.4,7.9-8.7,5.5-14.2c-2.4-5.4-8.8-7.9-14.2-5.5l-0.2,0.1
		c-5.5,2.4-7.9,8.7-5.5,14.2C135.2,105.4,139.2,107.8,143.3,107.8z"/>
	<path class="st1" d="M346.6,347.3c-5-3.3-11.7-1.9-14.9,3.1c-8.9,13.6-19.3,26.6-31,38.7c-9.6,9.9-20,19.2-30.9,27.5
		c-4.7,3.6-5.6,10.4-2,15.1c2.1,2.8,5.3,4.2,8.6,4.2c2.3,0,4.6-0.7,6.5-2.2c11.8-9,23-18.9,33.3-29.6c12.6-13,23.9-27.1,33.5-41.8
		C353,357.2,351.6,350.5,346.6,347.3z"/>
	<path class="st1" d="M244.9,433.4l-0.6,0.4c-5.1,3-6.9,9.6-3.9,14.7c2,3.5,5.6,5.4,9.3,5.4c1.8,0,3.7-0.5,5.4-1.5l0.7-0.4
		c5.1-3,6.9-9.6,3.9-14.7C256.6,432.2,250,430.4,244.9,433.4z"/>
	<path class="st1" d="M144.9,234c-6.6-6.6-15.4-10.3-24.8-10.3S102,227.4,95.4,234c-13.7,13.7-13.7,35.9,0,49.5l63.6,63.6
		c6.6,6.6,15.4,10.3,24.8,10.3c9.4,0,18.1-3.6,24.8-10.3l132.8-132.8c13.7-13.7,13.7-35.9,0-49.5c-6.6-6.6-15.4-10.3-24.8-10.3
		c-9.4,0-18.1,3.6-24.8,10.3l-108,108L144.9,234z M307,180.1c2.5-2.5,5.9-3.9,9.5-3.9c3.6,0,7,1.4,9.5,3.9c5.3,5.3,5.3,13.8,0,19.1
		L193.3,331.9c-2.5,2.5-5.9,3.9-9.5,3.9c-3.6,0-7-1.4-9.5-3.9l-63.6-63.6c-5.3-5.3-5.3-13.8,0-19.1c2.5-2.5,5.9-3.9,9.5-3.9
		c3.6,0,7,1.4,9.5,3.9l46.4,46.4c2,2,4.8,3.2,7.6,3.2s5.6-1.1,7.6-3.2L307,180.1z"/>
</g>
</svg>
