<?xml version="1.0" encoding="utf-8"?>
<!-- Generator: Adobe Illustrator 22.1.0, SVG Export Plug-In . SVG Version: 6.00 Build 0)  -->
<svg version="1.1" id="Слой_1" xmlns="http://www.w3.org/2000/svg" xmlns:xlink="http://www.w3.org/1999/xlink" x="0px" y="0px"
	 viewBox="0 0 200 51.7" style="enable-background:new 0 0 200 51.7;" xml:space="preserve">
<style type="text/css">
	.st0{fill-rule:evenodd;clip-rule:evenodd;fill:#0761AF;}
</style>
<g>
	<path class="st0" d="M26.9,0c4.1,0,7.9,0.9,11.3,2.6c0.5,0.3,1.1,0.5,1.6,0.8l-2.4,2.1l-3.6-3.7l-6,5.4l-3.6-3.9L13,13.5l7.2,7.9
		l-2.8,2.5l7.1,8l-2.8,2.5l10.1,11.3l6-5.5l5.2,5.9c-1,0.8-2.2,1.6-3.4,2.3c-3.8,2.1-8.1,3.4-12.7,3.4C12.6,51.7,1,40.1,1,25.9
		S12.6,0,26.9,0L26.9,0z"/>
	<polygon class="st0" points="22.1,24.2 28.3,18.7 33.8,24.8 27.7,30.4 22.1,24.2 	"/>
	<polygon class="st0" points="26.5,34.8 32.7,29.3 38.2,35.5 32,41 26.5,34.8 	"/>
	<polygon class="st0" points="17.7,13.7 23.9,8.2 29.4,14.3 23.3,19.9 17.7,13.7 	"/>
	<polygon class="st0" points="29,10.7 33.6,6.6 37.8,11.2 33.2,15.4 29,10.7 	"/>
	<polygon class="st0" points="37.2,29.8 41.8,25.6 46,30.2 41.4,34.4 37.2,29.8 	"/>
	<polygon class="st0" points="41.3,39.1 45.9,34.9 50,39.5 45.4,43.7 41.3,39.1 	"/>
	<polygon class="st0" points="43.1,17.7 46.2,15 49,18 45.9,20.8 43.1,17.7 	"/>
	<polygon class="st0" points="39.2,8.6 42.3,5.8 45,8.9 42,11.7 39.2,8.6 	"/>
	<polygon class="st0" points="47.1,26.9 50.1,24.1 52.9,27.2 49.8,29.9 47.1,26.9 	"/>
	<polygon class="st0" points="33.3,20 37.9,15.9 42,20.5 37.4,24.6 33.3,20 	"/>
</g>
<path class="st0" d="M123.9,15.9l-0.1,0.1l-0.1-0.1c-1.1-1-2.2-1.3-3.7-1.3c-3.3,0-5.5,2.3-5.5,5.9c0,0,0,16.5,0,16.9
	c0.3,0,3,0,3.3,0c0-0.4,0-16.9,0-16.9c0-2.4,1.6-2.6,2.2-2.6c0.4,0,1,0.1,1.4,0.5c0.5,0.5,0.7,1.2,0.7,2.1c0,0,0,16.5,0,16.9
	c0.3,0,3,0,3.3,0c0-0.4,0-16.9,0-16.9c0-2.4,1.6-2.6,2.2-2.6c0.4,0,1,0.1,1.4,0.5c0.5,0.5,0.7,1.2,0.7,2.1c0,0,0,16.5,0,16.9
	c0.3,0,3,0,3.3,0c0-0.4,0-16.9,0-16.9c0-1.9-0.6-3.4-1.6-4.5c-1-0.9-2.3-1.4-3.9-1.4C126.1,14.6,124.9,15,123.9,15.9z"/>
<path class="st0" d="M148.2,22.4c-1.1-1.2-2.9-2.2-5.4-2.2c-2.4,0-4.2,1-5.3,2.2c-1.7,1.9-2.1,4.5-2.1,6.6c0,2,0.3,4.7,2.1,6.6
	c1.1,1.2,2.9,2.2,5.3,2.2c2.5,0,4.3-1,5.4-2.2c1.7-1.9,2.1-4.5,2.1-6.6C150.2,26.9,149.9,24.3,148.2,22.4L148.2,22.4z M146.9,29.7
	c0,1.6,0,3.4-1.2,4.7c-0.5,0.5-1.4,1.1-2.9,1.1c-1.4,0-2.4-0.6-2.8-1.1c-1.2-1.3-1.2-3.1-1.2-4.7v-1.5c0-1.6,0-3.4,1.2-4.6
	c0.5-0.5,1.4-1.2,2.8-1.2c1.5,0,2.5,0.6,2.9,1.2c1.2,1.3,1.2,3,1.2,4.6V29.7z"/>
<path class="st0" d="M153,20.5l2.8,0V22c0.8-0.6,1.5-1,2.4-1.3c1-0.4,1.7-0.5,2.7-0.5c1.4,0,2.9,0.3,4.1,1.6
	c1.2,1.3,1.4,2.9,1.4,4.3v11.2h-3.1V25.9c0-2.7-1.7-3.5-3.2-3.5c-1.4,0-2.9,0.6-4.1,1.7v13.2h-3V23V20.5z"/>
<path class="st0" d="M181.5,34.1c-0.6,0.3-1.2,0.5-2,0.8c-0.9,0.3-1.6,0.4-2.6,0.4c-1.6,0-3-0.5-3.8-1.4c-0.6-0.6-1.2-1.7-1.2-3.8
	v-0.4h10.4v-0.8c0-2.7-0.1-4.9-1.8-6.7c-1.1-1.2-2.8-2-4.9-2c-2.4,0-4.1,1-5.2,2.2c-1.7,2-1.9,4.6-1.9,6.3c0,1.9,0.3,4.7,2,6.6
	c1.1,1.3,3.1,2.4,5.9,2.4c1.3,0,2.6-0.1,4-0.7c0.7-0.3,1.5-0.7,2.1-1L181.5,34.1L181.5,34.1z M171.9,27.1c0-1.9,0.6-3,1.1-3.6
	c0.5-0.5,1.3-1.1,2.6-1.1c0.9,0,1.7,0.2,2.4,0.8c1.1,1.1,1.1,2.4,1.1,3.5v0.7h-7.1V27.1z"/>
<path class="st0" d="M199,20.5l-6.6,19.9c-0.2,0.9-0.9,2.3-1.6,3.1c-0.9,1-2,1.4-3.3,1.4c-0.9,0-1.8-0.2-2.7-0.7
	c-0.5-0.3-1.1-0.7-1.4-1.1l1.4-1.8c0.2,0.2,0.6,0.5,0.9,0.7c0.5,0.3,1.1,0.4,1.6,0.4c0.9,0,1.5-0.5,1.8-0.9c0.3-0.4,0.7-1.4,0.9-2.1
	l0.4-1.3l-7.1-17.6h3.3l4.2,10.6c0.4,1,0.9,2.6,1,3h0.1c0.5-2,0.8-2.7,1.2-4l3-9.6H199z"/>
<path class="st0" d="M69.3,36.4l0.1-0.1l0.1,0.1c1.1,0.9,2.2,1.3,3.7,1.3c3.3,0,5.5-2.4,5.5-5.9c0,0,0-16.6,0-16.9c-0.3,0-3,0-3.4,0
	c0,0.3,0,16.9,0,16.9c0,2.4-1.6,2.6-2.1,2.6c-0.4,0-1,0-1.4-0.5c-0.5-0.4-0.7-1.2-0.7-2.1c0,0,0-16.6,0-16.9c-0.3,0-3,0-3.4,0
	c0,0.3,0,16.9,0,16.9c0,2.4-1.6,2.6-2.2,2.6c-0.4,0-1,0-1.4-0.5c-0.5-0.4-0.7-1.2-0.7-2.1c0,0,0-16.6,0-16.9c-0.3,0-3,0-3.4,0
	c0,0.3,0,16.9,0,16.9c0,1.8,0.6,3.4,1.6,4.4c1,1,2.4,1.5,3.9,1.5C67.1,37.8,68.3,37.3,69.3,36.4z"/>
<path class="st0" d="M94.2,34.1c-0.5,0.2-1.2,0.5-1.9,0.8c-0.9,0.3-1.6,0.4-2.6,0.4c-1.6,0-3-0.5-3.8-1.4c-0.5-0.6-1.2-1.7-1.2-3.8
	v-0.4h10.3v-0.8c0-2.7-0.1-4.9-1.7-6.7c-1.1-1.2-2.8-2-5-2c-2.3,0-4,1-5.1,2.2c-1.8,2-1.9,4.6-1.9,6.3c0,1.9,0.2,4.7,2,6.6
	c1.2,1.3,3.1,2.4,5.9,2.4c1.3,0,2.6-0.2,4-0.7c0.7-0.2,1.5-0.7,2-1L94.2,34.1L94.2,34.1z M84.7,27.1c0-1.9,0.6-3,1.1-3.6
	c0.4-0.5,1.2-1.1,2.5-1.1c0.9,0,1.7,0.2,2.4,0.9c1.1,1,1.1,2.3,1.1,3.5v0.7h-7.1V27.1z"/>
<path class="st0" d="M109.4,21.9c-1.2-1.1-2.9-1.7-4.6-1.7c-0.8,0-1.6,0.1-2.2,0.2c-0.5,0.1-1.1,0.4-1.6,0.6v-6.6h-3v21.4
	c1.8,1.1,3.9,1.8,6.3,1.8c1.8,0,4.2-0.4,5.9-2.7c1.4-1.9,1.7-4.2,1.7-6.2C111.8,27.1,111.7,23.9,109.4,21.9L109.4,21.9z M104.2,22.4
	c1.2,0,2.5,0.4,3.2,1.2c1.1,1.2,1.1,2.9,1.1,4.4v1.4c0,2.8-0.5,4-0.9,4.6c-0.5,0.6-1.5,1.4-3.2,1.4c-0.6,0-1.4-0.2-2-0.3
	c-0.4-0.1-1-0.4-1.4-0.7v-11"/>
</svg>
