<?xml version="1.0" encoding="iso-8859-1"?>
<!-- Generator: Adobe Illustrator 22.1.0, SVG Export Plug-In . SVG Version: 6.00 Build 0)  -->
<svg version="1.1" id="&#x421;&#x43B;&#x43E;&#x439;_1"
	 xmlns="http://www.w3.org/2000/svg" xmlns:xlink="http://www.w3.org/1999/xlink" x="0px" y="0px" viewBox="0 0 21.5 16.438"
	 style="enable-background:new 0 0 21.5 16.438;" xml:space="preserve">
<g>
	<g>
		<defs>
			<rect id="SVGID_1_" width="21.84" height="17"/>
		</defs>
		<clipPath id="SVGID_2_">
			<use xlink:href="#SVGID_1_"  style="overflow:visible;"/>
		</clipPath>
		<path style="clip-path:url(#SVGID_2_);" d="M21.48,2.617c-0.054-0.106-0.156-0.176-0.273-0.199
			c-2.109-0.422-4.355-0.168-6.297,0.691c-0.156,0.066-0.25,0.227-0.238,0.395c0.012,0.167,0.125,0.308,0.289,0.355
			c0.766,0.219,1.305,0.93,1.305,1.719c0,0.992-0.809,1.801-1.801,1.801c-0.992,0-1.801-0.809-1.801-1.801
			c0-0.582,0.285-1.133,0.766-1.469c0.09-0.063,0.148-0.156,0.168-0.262c0.015-0.105-0.008-0.211-0.071-0.301l-2.437-3.39
			c-0.152-0.207-0.5-0.207-0.652,0L8,3.546c-0.062,0.09-0.086,0.196-0.066,0.301c0.015,0.106,0.078,0.199,0.164,0.262
			c0.48,0.336,0.765,0.887,0.765,1.469c0,0.992-0.808,1.801-1.801,1.801c-0.992,0-1.796-0.809-1.796-1.801
			c0-0.793,0.535-1.5,1.304-1.719c0.16-0.047,0.278-0.188,0.285-0.355c0.012-0.168-0.082-0.329-0.234-0.395
			C4.68,2.246,2.426,1.996,0.324,2.418C0.207,2.441,0.105,2.511,0.047,2.617c-0.055,0.105-0.063,0.226-0.02,0.34l3.547,8.972
			c1.184-0.976,4.196-1.484,7.192-1.484c2.992,0,6.004,0.508,7.187,1.484L21.5,2.957C21.543,2.847,21.535,2.722,21.48,2.617
			L21.48,2.617z M10.793,1.879L9.5,3.679c0.41,0.547,0.633,1.219,0.633,1.899c0,1.765-1.438,3.203-3.203,3.203
			c-0.11,0-0.2-0.09-0.2-0.203c0-0.11,0.09-0.199,0.2-0.199c1.547,0,2.8-1.254,2.8-2.801c0-0.641-0.226-1.27-0.632-1.77
			C9.039,3.738,9.035,3.64,9.086,3.566l1.383-1.922c0.066-0.09,0.191-0.109,0.281-0.043C10.836,1.664,10.859,1.789,10.793,1.879
			L10.793,1.879z M10.766,11.246c-4.141,0-6.536,0.914-6.875,1.484l0.761,1.922c0.305,1.219,3.305,1.781,6.114,1.781
			c2.804,0,5.808-0.562,6.113-1.781l0.758-1.922C17.297,12.16,14.902,11.246,10.766,11.246L10.766,11.246z M10.766,15.632
			c-3.528,0-5.344-0.832-5.344-1.183c0-0.356,1.816-1.184,5.344-1.184c3.523,0,5.343,0.828,5.343,1.184
			C16.109,14.8,14.289,15.632,10.766,15.632L10.766,15.632z M10.766,15.632"/>
	</g>
</g>
</svg>
