<?xml version="1.0" encoding="iso-8859-1"?>
<!-- Generator: Adobe Illustrator 22.1.0, SVG Export Plug-In . SVG Version: 6.00 Build 0)  -->
<svg version="1.1" id="Capa_1" xmlns="http://www.w3.org/2000/svg" xmlns:xlink="http://www.w3.org/1999/xlink" x="0px" y="0px"
	 viewBox="-49 141 512 512" style="enable-background:new -49 141 512 512;" xml:space="preserve">
<path style="fill:#FFFFFF;" d="M243.342,458.44c-15.193-15.192-39.912-15.192-55.105,0l-18.011,18.011
	c-2.224,2.224-5.182,3.449-8.327,3.449s-6.104-1.225-8.327-3.45l-66.148-66.148c-2.225-2.225-3.45-5.182-3.45-8.328
	c0-2.909,1.06-5.65,2.978-7.806c0.143-0.127,0.289-0.248,0.426-0.385c0.263-0.263,0.504-0.538,0.732-0.821l17.326-17.326
	c15.192-15.193,15.192-39.913,0-55.105l-55.316-55.315c-7.876-7.876-18.768-12.007-29.887-11.342
	c-11.117,0.667-21.438,6.074-28.314,14.834l-11.879,15.132C-62.454,337.974-57.803,415.492-9.14,464.156L99.766,573.062
	c26.396,26.396,61.271,39.84,96.309,39.84c23.802,0,47.681-6.215,69.014-18.788c6.463,7.986,6.103,17.501,3.375,24.084
	C265.5,625.354,258.124,633,246.312,633h-66.776c-5.522,0-10,4.477-10,10c0,5.523,4.478,10,10,10h66.776
	c18.125,0,33.694-10.402,40.63-27.148c6.114-14.76,3.997-30.776-5.367-43.144l13.639-10.707
	c8.761-6.878,14.168-17.199,14.835-28.317c0.667-11.117-3.468-22.01-11.343-29.885L243.342,458.44z M21.431,273.839
	c5.496-0.331,10.658,1.631,14.547,5.521l55.315,55.315c3.582,3.582,5.555,8.344,5.555,13.41s-1.973,9.829-5.555,13.41
	l-11.031,11.031l-80.904-80.904l8.292-10.563C11.046,276.733,15.941,274.169,21.431,273.839z M113.906,558.921L5,450.014
	c-38.06-38.059-44.554-96.805-17.438-141.903l79.725,79.725c-2.161,4.34-3.312,9.15-3.312,14.14c0,8.488,3.306,16.468,9.308,22.47
	l66.148,66.148c6.002,6.002,13.981,9.308,22.47,9.308c4.99,0,9.8-1.151,14.141-3.312l79.77,79.77
	C210.71,603.474,151.966,596.979,113.906,558.921z M290.081,542.489c-0.329,5.491-2.894,10.386-7.221,13.783l-10.562,8.292
	l-80.95-80.95l11.03-11.031c7.393-7.396,19.426-7.395,26.82,0l55.361,55.361C288.449,531.833,290.41,536.998,290.081,542.489z"/>
<path style="fill:#FFDC01;" d="M37.521,434.131c-3.906-3.905-10.236-3.905-14.143,0c-3.905,3.905-3.905,10.237,0,14.143
	l60.345,60.345c1.953,1.953,4.512,2.929,7.071,2.929s5.118-0.976,7.071-2.929c3.905-3.905,3.905-10.237,0-14.143L37.521,434.131z"/>
<path style="fill:#FFDC01;" d="M122.174,522.928c-2.63,0-5.21,1.07-7.069,2.93c-1.86,1.86-2.931,4.44-2.931,7.07
	c0,2.63,1.07,5.21,2.931,7.07c1.859,1.86,4.43,2.93,7.069,2.93c2.63,0,5.21-1.07,7.07-2.93c1.86-1.86,2.93-4.44,2.93-7.07
	c0-2.63-1.069-5.21-2.93-7.07C127.383,523.998,124.804,522.928,122.174,522.928z"/>
<path style="fill:#FFFFFF;" d="M388.983,141H196.985c-40.804,0-74,33.196-74,74v79c0,40.804,33.196,74,74,74h80.558v28.095
	c0,4.044,2.437,7.691,6.173,9.239c1.237,0.513,2.537,0.762,3.825,0.762c2.603,0,5.16-1.017,7.073-2.929l35.166-35.167h59.204
	c40.804,0,74-33.196,74-74v-79C462.983,174.196,429.786,141,388.983,141z M442.983,293.999c0,29.776-24.225,54-54,54h-63.347
	c-2.652,0-5.195,1.054-7.071,2.929l-21.024,21.024v-13.953c0-5.523-4.478-10-10-10h-90.557c-29.775,0-54-24.224-54-54v-79
	c0-29.776,24.225-54,54-54h191.999c29.775,0,54,24.224,54,54L442.983,293.999L442.983,293.999z"/>
<path style="fill:#FFDC01;" d="M230.521,280.499h-21.079c12.04-11.595,24.249-26.847,24.249-41.024
	c0-18.528-12.448-30.976-30.976-30.976c-17.08,0-30.977,13.896-30.977,30.976c0,5.523,4.478,10,10,10s10-4.477,10-10
	c0-6.052,4.924-10.976,10.977-10.976c9.838,0,10.976,6.264,10.976,10.976c0,10.946-22.52,32.052-37.737,42.868
	c-3.551,2.519-5.064,7.044-3.743,11.192c1.322,4.147,5.175,6.964,9.528,6.964h48.782c5.522,0,10-4.477,10-10
	C240.521,284.976,236.043,280.499,230.521,280.499z"/>
<path style="fill:#FFDC01;" d="M280.464,237.144c-5.522,0-10,4.477-10,10v6.983h-9.778l17.453-30.684
	c2.73-4.801,1.053-10.906-3.748-13.637c-4.798-2.729-10.905-1.054-13.637,3.748l-25.953,45.628
	c-1.761,3.096-1.742,6.894,0.048,9.972c1.791,3.078,5.083,4.972,8.645,4.972h26.971v16.373c0,5.523,4.478,10,10,10s10-4.477,10-10
	v-43.355C290.464,241.621,285.986,237.144,280.464,237.144z"/>
<path style="fill:#FFDC01;" d="M345.101,209.167c-5.157-1.983-10.94,0.587-12.924,5.742l-27.7,72
	c-1.983,5.155,0.588,10.941,5.742,12.924c1.182,0.455,2.395,0.67,3.589,0.67c4.017,0,7.807-2.439,9.335-6.412l27.7-72
	C352.826,216.936,350.255,211.15,345.101,209.167z"/>
<path style="fill:#FFDC01;" d="M404.228,208.5h-35.163c-5.522,0-10,4.477-10,10c0,5.523,4.478,10,10,10h20.772l-21.772,58.513
	c-1.926,5.176,0.709,10.934,5.885,12.859c1.149,0.428,2.327,0.631,3.486,0.631c4.058,0,7.875-2.489,9.373-6.516l26.791-72
	c1.143-3.07,0.709-6.504-1.16-9.194C410.57,210.104,407.503,208.5,404.228,208.5z"/>
<path style="fill:#FFDC01;" d="M125.59,611.127c-3.905-3.905-10.235-3.905-14.143,0c-3.905,3.905-3.905,10.237,0,14.142
	l24.799,24.799c1.953,1.953,4.512,2.929,7.071,2.929s5.118-0.977,7.071-2.929c3.905-3.905,3.905-10.237,0-14.142L125.59,611.127z"/>
<path style="fill:#FFDC01;" d="M74.978,611.127c-3.905-3.905-10.235-3.905-14.143,0c-3.905,3.905-3.905,10.237,0,14.142
	l24.799,24.799c1.953,1.953,4.512,2.929,7.071,2.929c2.559,0,5.118-0.977,7.071-2.929c3.905-3.905,3.905-10.237,0-14.142
	L74.978,611.127z"/>
<path style="fill:#FFDC01;" d="M24.366,611.127c-3.905-3.905-10.235-3.905-14.143,0c-3.905,3.905-3.905,10.237,0,14.142
	l24.799,24.799c1.953,1.953,4.512,2.929,7.071,2.929c2.559,0,5.118-0.977,7.071-2.929c3.905-3.905,3.905-10.237,0-14.142
	L24.366,611.127z"/>
</svg>
