<?xml version="1.0" encoding="iso-8859-1"?>
<!-- Generator: Adobe Illustrator 22.1.0, SVG Export Plug-In . SVG Version: 6.00 Build 0)  -->
<svg version="1.1" id="&#x421;&#x43B;&#x43E;&#x439;_1"
	 xmlns="http://www.w3.org/2000/svg" xmlns:xlink="http://www.w3.org/1999/xlink" x="0px" y="0px" viewBox="0 0 39.84 38.688"
	 style="enable-background:new 0 0 39.84 38.688;" xml:space="preserve">
<g>
	<g>
		<defs>
			<rect id="SVGID_1_" y="-0.375" width="39.84" height="39.84"/>
		</defs>
		<clipPath id="SVGID_2_">
			<use xlink:href="#SVGID_1_"  style="overflow:visible;"/>
		</clipPath>
		<path style="clip-path:url(#SVGID_2_);" d="M39.086,17.576c0.785-0.77,1.062-1.891,0.723-2.938
			c-0.34-1.047-1.223-1.793-2.313-1.949l-9.672-1.406c-0.414-0.063-0.769-0.32-0.953-0.692l-4.324-8.765
			c-0.485-0.985-1.473-1.598-2.57-1.598c-1.098,0-2.082,0.613-2.571,1.598l-4.324,8.765c-0.184,0.372-0.539,0.633-0.953,0.692
			l-9.672,1.406c-1.09,0.156-1.977,0.902-2.316,1.949c-0.336,1.047-0.059,2.172,0.726,2.938l7,6.82
			c0.297,0.293,0.434,0.711,0.363,1.121L6.578,35.15c-0.144,0.848,0.078,1.676,0.625,2.324c0.856,1.016,2.344,1.325,3.535,0.696
			l8.649-4.547c0.363-0.192,0.816-0.188,1.179,0l8.653,4.547c0.418,0.222,0.867,0.336,1.332,0.336c0.844,0,1.648-0.375,2.199-1.032
			c0.547-0.648,0.77-1.476,0.625-2.324l-1.652-9.633c-0.071-0.41,0.066-0.828,0.363-1.121L39.086,17.576z M39.086,17.576"/>
	</g>
</g>
</svg>
