<?xml version="1.0" encoding="utf-8"?>
<!-- Generator: Adobe Illustrator 22.1.0, SVG Export Plug-In . SVG Version: 6.00 Build 0)  -->
<svg version="1.1" id="Слой_1" xmlns="http://www.w3.org/2000/svg" xmlns:xlink="http://www.w3.org/1999/xlink" x="0px" y="0px"
	 width="46.8px" height="47px" viewBox="0 0 46.8 47" style="enable-background:new 0 0 46.8 47;" xml:space="preserve">
<style type="text/css">
	.st0{clip-path:url(#SVGID_2_);fill:#020202;}
</style>
<g>
	<g>
		<defs>
			<rect id="SVGID_1_" x="0" y="0" width="46.8" height="47"/>
		</defs>
		<clipPath id="SVGID_2_">
			<use xlink:href="#SVGID_1_"  style="overflow:visible;"/>
		</clipPath>
		<path class="st0" d="M44.5,9.1L30.5,23l13.9,14c2.1,2.1,2.1,5.4,0,7.5c-1,1-2.4,1.6-3.8,1.6c-1.4,0-2.7-0.5-3.8-1.6l-14-14l-14,14
			c-1,1-2.4,1.6-3.8,1.6c-1.4,0-2.7-0.5-3.8-1.6c-2.1-2.1-2.1-5.4,0-7.5l13.9-14L1.6,9.1c-2.1-2.1-2.1-5.4,0-7.5
			c2.1-2.1,5.4-2.1,7.5,0l14,14l14-14c2.1-2.1,5.4-2.1,7.5,0C46.6,3.6,46.6,7,44.5,9.1L44.5,9.1z M44.5,9.1"/>
	</g>
</g>
</svg>
