<?xml version="1.0" encoding="utf-8"?>
<!-- Generator: Adobe Illustrator 22.1.0, SVG Export Plug-In . SVG Version: 6.00 Build 0)  -->
<svg version="1.1" id="Слой_1" xmlns="http://www.w3.org/2000/svg" xmlns:xlink="http://www.w3.org/1999/xlink" x="0px" y="0px"
	 width="237.6px" height="208.2px" viewBox="0 0 237.6 208.2" style="enable-background:new 0 0 237.6 208.2;" xml:space="preserve"
	>
<g>
	<path d="M67.1,147.8c-4.4,0-8,3.6-8,8c0,4.4,3.6,8,8,8c4.4,0,8-3.6,8-8C75.1,151.4,71.5,147.8,67.1,147.8L67.1,147.8z M67.1,147.8"
		/>
	<path d="M37.6,147.8c-4.4,0-8,3.6-8,8c0,4.4,3.6,8,8,8c4.4,0,8-3.6,8-8C45.6,151.4,42,147.8,37.6,147.8L37.6,147.8z M37.6,147.8"/>
	<path d="M96.6,147.8c-4.4,0-8,3.6-8,8c0,4.4,3.6,8,8,8c4.4,0,8-3.6,8-8C104.7,151.4,101.1,147.8,96.6,147.8L96.6,147.8z
		 M96.6,147.8"/>
	<path d="M126.2,147.8c-4.4,0-8,3.6-8,8c0,4.4,3.6,8,8,8c4.4,0,8-3.6,8-8C134.2,151.4,130.6,147.8,126.2,147.8L126.2,147.8z
		 M126.2,147.8"/>
	<path d="M8,147.8c-2.1,0-4.2,0.8-5.7,2.3c-1.5,1.5-2.3,3.6-2.3,5.7c0,2.1,0.9,4.2,2.3,5.7c1.5,1.5,3.6,2.4,5.7,2.4
		c2.1,0,4.2-0.9,5.7-2.4c1.5-1.5,2.3-3.6,2.3-5.7c0-2.1-0.9-4.2-2.3-5.7C12.2,148.7,10.1,147.8,8,147.8L8,147.8z M8,147.8"/>
	<path d="M8,88.7c-4.4,0-8,3.6-8,8c0,4.4,3.6,8,8,8c4.4,0,8-3.6,8-8C16,92.3,12.4,88.7,8,88.7L8,88.7z M8,88.7"/>
	<path d="M8,59.1c-4.4,0-8,3.6-8,8c0,4.4,3.6,8,8,8c4.4,0,8-3.6,8-8C16,62.7,12.4,59.1,8,59.1L8,59.1z M8,59.1"/>
	<path d="M8,29.6c-4.4,0-8,3.6-8,8c0,4.4,3.6,8,8,8c4.4,0,8-3.6,8-8C16,33.2,12.4,29.6,8,29.6L8,29.6z M8,29.6"/>
	<path d="M8,118.2c-4.4,0-8,3.6-8,8c0,4.4,3.6,8,8,8c4.4,0,8-3.6,8-8C16,121.8,12.4,118.2,8,118.2L8,118.2z M8,118.2"/>
	<path d="M8,0C5.9,0,3.8,0.9,2.3,2.3C0.9,3.8,0,5.9,0,8c0,2.1,0.9,4.2,2.3,5.7C3.8,15.2,5.9,16,8,16c2.1,0,4.2-0.9,5.7-2.3
		C15.2,12.2,16,10.1,16,8c0-2.1-0.9-4.2-2.3-5.7C12.2,0.9,10.1,0,8,0L8,0z M8,0"/>
	<path d="M126.2,16c4.4,0,8-3.6,8-8c0-4.4-3.6-8-8-8c-4.4,0-8,3.6-8,8C118.2,12.4,121.8,16,126.2,16L126.2,16z M126.2,16"/>
	<path d="M155.7,16c4.4,0,8-3.6,8-8c0-4.4-3.6-8-8-8c-4.4,0-8,3.6-8,8C147.7,12.4,151.3,16,155.7,16L155.7,16z M155.7,16"/>
	<path d="M67.1,0c-4.4,0-8,3.6-8,8c0,4.4,3.6,8,8,8c4.4,0,8-3.6,8-8C75.1,3.6,71.5,0,67.1,0L67.1,0z M67.1,0"/>
	<path d="M37.6,0c-4.4,0-8,3.6-8,8c0,4.4,3.6,8,8,8c4.4,0,8-3.6,8-8C45.6,3.6,42,0,37.6,0L37.6,0z M37.6,0"/>
	<path d="M96.6,0c-4.4,0-8,3.6-8,8c0,4.4,3.6,8,8,8c4.4,0,8-3.6,8-8C104.7,3.6,101.1,0,96.6,0L96.6,0z M96.6,0"/>
	<path d="M185.3,16c2.1,0,4.2-0.9,5.7-2.3c1.5-1.5,2.4-3.6,2.4-5.7c0-2.1-0.9-4.2-2.4-5.7c-1.5-1.5-3.6-2.3-5.7-2.3
		c-2.1,0-4.2,0.9-5.7,2.3c-1.5,1.5-2.4,3.6-2.4,5.7c0,2.1,0.9,4.2,2.4,5.7C181.1,15.2,183.2,16,185.3,16L185.3,16z M185.3,16"/>
	<path d="M185.3,75.2c4.4,0,8-3.6,8-8c0-4.4-3.6-8-8-8c-4.4,0-8,3.6-8,8C177.2,71.6,180.8,75.2,185.3,75.2L185.3,75.2z M185.3,75.2"
		/>
	<path d="M185.3,45.6c4.4,0,8-3.6,8-8c0-4.4-3.6-8-8-8c-4.4,0-8,3.6-8,8C177.2,42,180.8,45.6,185.3,45.6L185.3,45.6z M185.3,45.6"/>
	<path d="M185.3,104.7c4.4,0,8-3.6,8-8c0-4.4-3.6-8-8-8c-4.4,0-8,3.6-8,8C177.2,101.1,180.8,104.7,185.3,104.7L185.3,104.7z
		 M185.3,104.7"/>
	<path d="M232.3,132l-94-34.4c-2.9-1.1-6.2-0.4-8.4,1.8c-2.2,2.2-3,5.5-1.9,8.4l34,95c1.1,3.1,4.1,5.3,7.4,5.3c0,0,0.1,0,0.2,0
		c3.3,0,6.2-2,7.4-5l12.8-31.8l26.8,27.1c1.6,1.6,3.6,2.4,5.7,2.4c2,0,4.1-0.8,5.6-2.3c3.2-3.1,3.2-8.2,0.1-11.3l-27-27.3l31.6-13
		c3.1-1.3,5-4.3,5-7.6C237.5,136.1,235.4,133.1,232.3,132L232.3,132z M183.9,149.6c-2,0.8-3.6,2.4-4.4,4.4l-9.4,23.5l-21.1-59
		l58.5,21.4L183.9,149.6z M183.9,149.6"/>
</g>
</svg>
