<?xml version="1.0" encoding="iso-8859-1"?>
<!-- Generator: Adobe Illustrator 22.1.0, SVG Export Plug-In . SVG Version: 6.00 Build 0)  -->
<svg version="1.1" id="Layer_1" xmlns="http://www.w3.org/2000/svg" xmlns:xlink="http://www.w3.org/1999/xlink" x="0px" y="0px"
	 viewBox="-49 141 512 512" style="enable-background:new -49 141 512 512;" xml:space="preserve">
<path style="fill:#FFDC01;" d="M251.522,355.261c0,6.147,4.984,11.13,11.13,11.13c6.146,0,11.13-4.983,11.13-11.13
	c0-14.738-7.369-28.381-20.753-38.419c-9.714-7.286-21.83-11.997-34.899-13.714v-17.432c0-6.147-4.984-11.13-11.13-11.13
	c-6.146,0-11.13,4.983-11.13,11.13v17.434c-13.069,1.716-25.186,6.428-34.899,13.714c-13.383,10.036-20.753,23.68-20.753,38.418
	c0,14.738,7.369,28.382,20.753,38.419c9.714,7.286,21.83,11.998,34.899,13.714v60.941c-18.955-3.498-33.391-15.634-33.391-29.595
	c0-6.147-4.984-11.13-11.13-11.13c-6.146,0-11.13,4.983-11.13,11.13c0,14.738,7.369,28.381,20.753,38.419
	c9.714,7.286,21.83,11.997,34.899,13.714v17.431c0,6.147,4.984,11.13,11.13,11.13c6.146,0,11.13-4.983,11.13-11.13v-17.434
	c13.069-1.716,25.186-6.428,34.899-13.714c13.383-10.036,20.753-23.68,20.753-38.418c0-14.738-7.369-28.382-20.753-38.419
	c-9.714-7.286-21.83-11.997-34.899-13.714v-60.941C237.086,329.164,251.522,341.3,251.522,355.261z M162.478,355.261
	c0-13.961,14.436-26.096,33.391-29.595v59.189C176.914,381.357,162.478,369.222,162.478,355.261z M251.522,438.739
	c0,13.961-14.436,26.096-33.391,29.595v-59.189C237.086,412.643,251.522,424.778,251.522,438.739z"/>
<path style="fill:#FFFFFF;" d="M388.02,215.981C339.667,167.628,275.381,141,207,141S74.333,167.628,25.98,215.981
	C-22.372,264.333-49,328.62-49,397s26.628,132.667,74.98,181.019C74.333,626.372,138.619,653,207,653s132.667-26.628,181.02-74.981
	C436.372,529.667,463,465.38,463,397S436.372,264.333,388.02,215.981z M207,630.739C78.116,630.739-26.739,525.884-26.739,397
	S78.116,163.261,207,163.261S440.739,268.116,440.739,397S335.884,630.739,207,630.739z"/>
<path style="fill:#FFFFFF;" d="M354.709,278.729c-3.846-4.798-10.852-5.566-15.647-1.722c-4.797,3.846-5.567,10.85-1.723,15.646
	c23.956,29.881,36.618,65.963,36.618,104.347c0,92.06-74.897,166.957-166.957,166.957S40.043,489.06,40.043,397
	S114.94,230.043,207,230.043c28.936,0,57.44,7.515,82.434,21.733c5.339,3.039,12.137,1.173,15.177-4.171
	c3.04-5.343,1.173-12.139-4.171-15.179C272.1,216.305,239.788,207.783,207,207.783c-104.334,0-189.217,84.883-189.217,189.217
	S102.666,586.217,207,586.217S396.217,501.334,396.217,397C396.217,354.122,381.476,312.119,354.709,278.729z"/>
<path style="fill:#FFFFFF;" d="M312.016,265.65c0.278,0.679,0.624,1.325,1.024,1.926c0.401,0.612,0.868,1.18,1.38,1.692
	c0.512,0.512,1.08,0.979,1.693,1.38c0.6,0.401,1.245,0.746,1.924,1.024c0.668,0.278,1.369,0.49,2.081,0.634
	c0.712,0.145,1.447,0.223,2.17,0.223c0.722,0,1.458-0.078,2.182-0.223c0.701-0.145,1.402-0.356,2.081-0.634
	c0.668-0.278,1.313-0.623,1.914-1.024c0.612-0.401,1.18-0.868,1.692-1.38c0.512-0.512,0.981-1.08,1.391-1.692
	c0.401-0.601,0.746-1.247,1.024-1.926c0.278-0.668,0.49-1.369,0.634-2.081c0.145-0.712,0.211-1.447,0.211-2.17
	s-0.068-1.458-0.211-2.182c-0.145-0.712-0.356-1.402-0.634-2.081c-0.278-0.668-0.623-1.313-1.024-1.914
	c-0.411-0.612-0.879-1.18-1.391-1.692c-0.512-0.523-1.08-0.979-1.692-1.391c-0.601-0.401-1.247-0.746-1.914-1.024
	c-0.679-0.278-1.38-0.49-2.081-0.634c-1.436-0.289-2.916-0.289-4.352,0c-0.712,0.145-1.415,0.356-2.081,0.634
	c-0.679,0.278-1.325,0.623-1.924,1.024c-0.613,0.412-1.181,0.868-1.693,1.391c-0.512,0.512-0.979,1.08-1.38,1.692
	c-0.4,0.601-0.746,1.247-1.024,1.914c-0.278,0.679-0.489,1.369-0.633,2.081c-0.146,0.723-0.223,1.458-0.223,2.182
	s0.077,1.458,0.223,2.17C311.526,264.281,311.737,264.982,312.016,265.65z"/>
</svg>
