<?xml version="1.0" encoding="utf-8"?>
<!-- Generator: Adobe Illustrator 22.1.0, SVG Export Plug-In . SVG Version: 6.00 Build 0)  -->
<svg version="1.1" id="Capa_1" xmlns="http://www.w3.org/2000/svg" xmlns:xlink="http://www.w3.org/1999/xlink" x="0px" y="0px"
	 viewBox="0 0 495 512" style="enable-background:new 0 0 495 512;" xml:space="preserve">
<style type="text/css">
	.st0{fill:#FFFFFF;}
	.st1{fill:#F5DC33;}
</style>
<path class="st0" d="M151.4,386.6l127.5-127.5l127,0c49.1,0,89.1-40,89.1-89.1c0-23.8-9.3-46.2-26.1-63c-15-15-34.3-23.9-55.1-25.8
	C412,60.4,403,41.1,388.1,26.1C371.2,9.3,348.9,0,325.1,0c0,0,0,0,0,0c-23.8,0-46.2,9.3-63,26.1c-16.8,16.8-26.1,39.2-26.1,63v127
	l-227,227C-3,455-3,474.3,8.9,486.2c5.7,5.7,13.4,8.9,21.5,8.9s15.7-3.2,21.5-8.9l2-2l25.4,25.4c1.4,1.4,3.2,2.2,5.1,2.4
	c0.3,0,0.5,0,0.8,0c2.1,0,4.2-0.8,5.9-2.4l46.8-46.8c3.2-3.2,3.2-8.5,0-11.7l-25.4-25.4l3.9-3.9l17.6,17.6c1.4,1.4,3.2,2.2,5.1,2.4
	c0.3,0,0.5,0,0.8,0c2.1,0,4.2-0.8,5.9-2.4l23.4-23.4c1.6-1.6,2.4-3.7,2.4-5.9c0-1.3-0.3-2.6-0.9-3.9c-0.4-0.7-0.9-1.4-1.5-2
	L151.4,386.6 M120.1,456.9L85,492l-19.5-19.5l35.1-35.1L120.1,456.9z M151.4,410l-11.7,11.7L128,410l11.7-11.7 M405.9,242.6
	l-130.5,0c-0.1,0-0.2,0-0.4,0c-0.2,0-0.3,0-0.5,0c-0.2,0-0.3,0-0.5,0.1c-0.1,0-0.2,0-0.3,0c-0.2,0-0.3,0.1-0.5,0.1
	c-0.1,0-0.2,0-0.3,0.1c-0.2,0-0.3,0.1-0.5,0.2c-0.1,0-0.2,0.1-0.3,0.1c-0.1,0.1-0.3,0.1-0.4,0.2c-0.1,0-0.2,0.1-0.3,0.1
	c-0.1,0.1-0.3,0.2-0.4,0.2c-0.1,0.1-0.2,0.1-0.3,0.2c-0.2,0.1-0.3,0.2-0.4,0.3c-0.1,0.1-0.1,0.1-0.2,0.2c-0.2,0.2-0.4,0.4-0.6,0.6
	L133.8,380.7c0,0,0,0,0,0c0,0,0,0,0,0l-85.9,85.9h0c0,0,0,0,0,0l-7.8,7.8c-2.6,2.6-6.1,4-9.8,4c-3.7,0-7.2-1.4-9.8-4
	c-5.4-5.4-5.4-14.1,0-19.5l229.5-229.5c0.1-0.1,0.2-0.3,0.4-0.4c0.1-0.1,0.1-0.1,0.2-0.2c0.1-0.1,0.2-0.3,0.3-0.5
	c0-0.1,0.1-0.1,0.1-0.2c0.1-0.2,0.2-0.3,0.3-0.5c0-0.1,0.1-0.1,0.1-0.2c0.1-0.2,0.2-0.3,0.2-0.5c0-0.1,0.1-0.2,0.1-0.2
	c0.1-0.2,0.1-0.3,0.2-0.5c0-0.1,0.1-0.2,0.1-0.3c0.1-0.2,0.1-0.3,0.1-0.5c0-0.1,0-0.2,0.1-0.3c0-0.2,0.1-0.4,0.1-0.6
	c0-0.1,0-0.1,0-0.2c0-0.3,0-0.6,0-0.9V89.1c0-19.4,7.5-37.6,21.3-51.3c13.7-13.7,31.9-21.3,51.3-21.3c0,0,0,0,0,0
	c19.4,0,37.6,7.5,51.3,21.3c13.7,13.7,21.3,31.9,21.3,51.3c0,2.2,0.9,4.3,2.4,5.9c1.6,1.6,3.7,2.4,5.9,2.4c0,0,0,0,0,0
	c19.4,0,37.6,7.5,51.3,21.3c13.7,13.7,21.3,31.9,21.3,51.3C478.5,210,445.9,242.6,405.9,242.6z"/>
<path class="st1" d="M433.8,142.1c-3.7-3.7-8-6.6-12.8-8.5c-4.8-2-9.9-3-15.1-3h-0.1c-3.8,0-7.5-0.5-11.2-1.5
	c-6.8-1.9-13.1-5.6-18.1-10.6c-3.9-3.9-6.9-8.4-9-13.4c-2.1-5-3.2-10.4-3.2-15.8c0-5.2-1-10.3-3-15.1c-2-4.8-4.9-9.1-8.6-12.8
	c-3.7-3.7-8-6.6-12.8-8.6c-4.8-2-9.9-3-15.1-3H325c-5.2,0-10.3,1-15.1,3c-4.8,2-9.1,4.9-12.8,8.5c-3.7,3.7-6.6,8-8.6,12.8
	c-2,4.8-3,9.9-3,15.1v36.3c0,4.6,3.7,8.3,8.3,8.3c4.6,0,8.3-3.7,8.3-8.3V89.1c0-6.2,2.3-11.8,6.7-16.2c4.4-4.4,10-6.7,16.2-6.7
	c6.2,0,11.8,2.3,16.2,6.7c4.4,4.4,6.7,10,6.7,16.2c0,7.7,1.5,15.1,4.4,22.2s7.2,13.4,12.6,18.8c7,7,15.8,12.2,25.4,14.8
	c5.1,1.4,10.3,2.1,15.6,2.1c6.2,0,11.8,2.3,16.2,6.7c4.4,4.4,6.7,10,6.7,16.2c0,12.6-10.3,22.9-22.9,22.9H302.2v-34.3
	c0-4.6-3.7-8.3-8.3-8.3c-4.6,0-8.3,3.7-8.3,8.3v42.6c0,4.6,3.7,8.3,8.3,8.3h112c10.5,0,20.4-4.1,27.9-11.6
	c7.5-7.5,11.6-17.4,11.6-27.9c0-5.2-1-10.3-3-15.1C440.4,150.1,437.5,145.8,433.8,142.1z"/>
</svg>
