<?xml version="1.0" encoding="iso-8859-1"?>
<!-- Generator: Adobe Illustrator 22.1.0, SVG Export Plug-In . SVG Version: 6.00 Build 0)  -->
<svg version="1.1" id="&#x421;&#x43B;&#x43E;&#x439;_1"
	 xmlns="http://www.w3.org/2000/svg" xmlns:xlink="http://www.w3.org/1999/xlink" x="0px" y="0px" viewBox="0 0 43.92 45.667"
	 style="enable-background:new 0 0 43.92 45.667;" xml:space="preserve">
<g>
	<g>
		<defs>
			<rect id="SVGID_1_" y="-0.25" width="43.92" height="46.8"/>
		</defs>
		<clipPath id="SVGID_2_">
			<use xlink:href="#SVGID_1_"  style="overflow:visible;"/>
		</clipPath>
		<path style="clip-path:url(#SVGID_2_);" d="M43.328,41.525L32.484,30.248c2.789-3.317,4.317-7.489,4.317-11.832
			c0-10.145-8.254-18.399-18.403-18.399C8.254,0.017,0,8.271,0,18.416c0,10.148,8.254,18.402,18.398,18.402
			c3.809,0,7.442-1.148,10.543-3.332l10.93,11.367c0.457,0.477,1.07,0.738,1.731,0.738c0.621,0,1.21-0.238,1.66-0.671
			C44.219,44.002,44.246,42.482,43.328,41.525L43.328,41.525z M18.398,4.818C25.898,4.818,32,10.92,32,18.416
			c0,7.5-6.102,13.601-13.602,13.601c-7.496,0-13.597-6.101-13.597-13.601C4.801,10.92,10.902,4.818,18.398,4.818L18.398,4.818z
			 M18.398,4.818"/>
	</g>
</g>
</svg>
