<?xml version="1.0" encoding="iso-8859-1"?>
<!-- Generator: Adobe Illustrator 22.1.0, SVG Export Plug-In . SVG Version: 6.00 Build 0)  -->
<svg version="1.1" id="&#x421;&#x43B;&#x43E;&#x439;_1"
	 xmlns="http://www.w3.org/2000/svg" xmlns:xlink="http://www.w3.org/1999/xlink" x="0px" y="0px" viewBox="0 0 382.223 382.222"
	 style="enable-background:new 0 0 382.223 382.222;" xml:space="preserve">
<g>
	<path d="M369.121,121.945c-7.828-20.113-18.875-38.578-32.648-54.715c-28.508-33.418-68.309-56.766-113.508-64.363
		C212.586,1.121,201.984,0,191.109,0s-21.472,1.121-31.851,2.867C114.059,10.464,74.266,33.804,45.75,67.218
		c-13.762,16.145-24.812,34.602-32.637,54.715C4.754,143.41,0,166.679,0,191.109c0,22.453,4.066,43.902,11.184,63.918
		c7.242,20.355,17.707,39.156,30.98,55.672c28.707,35.711,69.965,60.734,117.094,68.656c10.379,1.746,20.976,2.867,31.851,2.867
		s21.477-1.121,31.856-2.867c47.129-7.922,88.387-32.949,117.09-68.652c13.277-16.516,23.742-35.313,30.98-55.672
		c7.117-20.012,11.188-41.469,11.188-63.922C382.223,166.687,377.469,143.414,369.121,121.945L369.121,121.945z M346.699,134.878
		l-33.418,19.293c-6.332-20.902-17.894-39.531-33.16-54.41l33.731-19.472C328.098,96.054,339.32,114.523,346.699,134.878
		L346.699,134.878z M293.297,191.109c0,56.348-45.836,102.187-102.188,102.187c-56.347,0-102.187-45.839-102.187-102.187
		c0-56.34,45.84-102.184,102.187-102.184C247.461,88.925,293.297,134.769,293.297,191.109L293.297,191.109z M191.109,25.48
		c10.899,0,21.539,1.129,31.856,3.145v39.003c-10.203-2.636-20.844-4.187-31.856-4.187c-11.011,0-21.648,1.551-31.851,4.187V28.625
		C169.574,26.609,180.211,25.48,191.109,25.48L191.109,25.48z M68.379,80.281l33.734,19.48c-15.265,14.875-26.84,33.5-33.172,54.403
		l-33.418-19.289C42.91,114.519,54.137,96.046,68.379,80.281L68.379,80.281z M33.594,242.086l33.918-19.579
		c5.398,21.246,16.086,40.352,30.656,55.86l-33.594,19.39C50.902,281.554,40.289,262.711,33.594,242.086L33.594,242.086z
		 M191.109,356.742c-10.898,0-21.535-1.129-31.851-3.145v-39.004c10.203,2.637,20.84,4.188,31.851,4.188
		c11.012,0,21.653-1.551,31.856-4.188v39.004C212.648,355.613,202.008,356.742,191.109,356.742L191.109,356.742z M317.633,297.757
		l-33.578-19.39c14.566-15.5,25.257-34.614,30.656-55.86l33.918,19.586C341.934,262.711,331.32,281.554,317.633,297.757
		L317.633,297.757z M317.633,297.757"/>
	<path d="M201.91,177.226c-16.25-6.117-22.93-10.129-22.93-16.437c0-5.348,4.008-10.7,16.434-10.7
		c7.168,0,12.992,1.188,17.621,2.633c2.625,0.813,5.473,0.512,7.887-0.836c2.402-1.336,4.144-3.605,4.828-6.277l0.176-0.656
		c1.551-6.09-2.106-12.301-8.203-13.875c-4.676-1.211-10.239-2.098-16.957-2.395v-7.176c0-4.875-3.614-9.144-8.469-9.597
		c-5.567-0.52-10.258,3.855-10.258,9.32v8.789c-20.453,4.012-32.297,17.203-32.297,34.016c0,18.539,13.946,28.097,34.403,34.976
		c14.132,4.778,20.253,9.364,20.253,16.621c0,7.645-7.453,11.852-18.351,11.852c-7.801,0-15.156-1.586-21.539-3.848
		c-2.66-0.953-5.61-0.722-8.113,0.606c-2.5,1.332-4.329,3.648-5.024,6.398l-0.086,0.324c-1.668,6.512,2.086,13.176,8.52,15.118
		c6.308,1.894,13.726,3.234,21.277,3.57v8.535c0,5.172,4.191,9.363,9.363,9.363c5.172,0,9.364-4.191,9.364-9.363v-9.875
		c21.972-3.816,34.015-18.344,34.015-35.351C233.824,195.765,224.656,185.253,201.91,177.226L201.91,177.226z M201.91,177.226"/>
</g>
</svg>
