<?xml version="1.0" encoding="utf-8"?>
<!-- Generator: Adobe Illustrator 22.1.0, SVG Export Plug-In . SVG Version: 6.00 Build 0)  -->
<svg version="1.1" id="Слой_1" xmlns="http://www.w3.org/2000/svg" xmlns:xlink="http://www.w3.org/1999/xlink" x="0px" y="0px"
	 viewBox="0 0 48.1 36.2" style="enable-background:new 0 0 48.1 36.2;" xml:space="preserve">
<g>
	<path d="M45.7,35.6H13.5c-1.3,0-2.4-1.1-2.4-2.4c0-1.3,1.1-2.4,2.4-2.4h32.2c1.3,0,2.4,1.1,2.4,2.4C48.1,34.5,47,35.6,45.7,35.6
		L45.7,35.6z M45.7,35.6"/>
	<path d="M45.7,20.5H13.5c-1.3,0-2.4-1.1-2.4-2.4c0-1.3,1.1-2.4,2.4-2.4h32.2c1.3,0,2.4,1.1,2.4,2.4C48.1,19.4,47,20.5,45.7,20.5
		L45.7,20.5z M45.7,20.5"/>
	<path d="M45.7,5.4H13.5c-1.3,0-2.4-1.1-2.4-2.4c0-1.3,1.1-2.4,2.4-2.4h32.2c1.3,0,2.4,1.1,2.4,2.4C48.1,4.4,47,5.4,45.7,5.4
		L45.7,5.4z M45.7,5.4"/>
	<path d="M6.4,3.2C6.4,5,5,6.4,3.2,6.4C1.4,6.4,0,5,0,3.2C0,1.4,1.4,0,3.2,0C5,0,6.4,1.4,6.4,3.2L6.4,3.2z M6.4,3.2"/>
	<path d="M6.4,18.1c0,1.8-1.4,3.2-3.2,3.2c-1.8,0-3.2-1.4-3.2-3.2c0-1.8,1.4-3.2,3.2-3.2C5,14.9,6.4,16.3,6.4,18.1L6.4,18.1z
		 M6.4,18.1"/>
	<path d="M6.4,33c0,1.8-1.4,3.2-3.2,3.2C1.4,36.2,0,34.8,0,33c0-1.8,1.4-3.2,3.2-3.2C5,29.8,6.4,31.2,6.4,33L6.4,33z M6.4,33"/>
</g>
</svg>
