<?xml version="1.0" encoding="iso-8859-1"?>
<!-- Generator: Adobe Illustrator 19.0.1, SVG Export Plug-In . SVG Version: 6.00 Build 0)  -->
<svg version="1.1" id="Layer_1" xmlns="http://www.w3.org/2000/svg" xmlns:xlink="http://www.w3.org/1999/xlink" x="0px" y="0px"
	 viewBox="-49 141 512 512" style="enable-background:new -49 141 512 512;" xml:space="preserve">
<path style="fill:#F5DC33;" d="M326.093,578.795c-5.367,0.001-10.76-1.294-15.744-3.914l-100.201-52.679
	c-1.969-1.035-4.318-1.035-6.286,0L103.66,574.881c-11.459,6.024-25.086,5.04-35.56-2.572c-10.474-7.609-15.62-20.263-13.432-33.024
	l19.137-111.576c0.375-2.191-0.351-4.426-1.942-5.978l-81.065-79.019c-9.272-9.037-12.546-22.3-8.544-34.613
	c4.002-12.313,14.445-21.118,27.257-22.979l112.029-16.279c2.2-0.32,4.1-1.7,5.085-3.694l50.101-101.516
	c5.729-11.61,17.331-18.822,30.278-18.822s24.549,7.212,30.278,18.822l50.101,101.514c0.983,1.993,2.885,3.375,5.084,3.694
	l112.03,16.279c12.812,1.861,23.256,10.666,27.257,22.979c4.001,12.313,0.727,25.576-8.544,34.613l-81.065,79.019
	c-1.591,1.552-2.318,3.787-1.942,5.978l19.137,111.576c2.189,12.759-2.958,25.413-13.432,33.024
	C339.989,576.611,333.064,578.795,326.093,578.795z M207.005,494.413c5.397,0,10.793,1.294,15.712,3.879l100.201,52.679
	c3.352,1.764,6.09,0.227,7.112-0.513c1.021-0.742,3.327-2.87,2.686-6.604L313.58,432.276c-1.879-10.955,1.75-22.127,9.71-29.886
	l81.065-79.019c2.713-2.644,2.099-5.723,1.709-6.923c-0.39-1.201-1.702-4.052-5.451-4.596l-112.029-16.279
	c-10.999-1.598-20.504-8.502-25.422-18.471L213.06,175.586v-0.001c-1.677-3.398-4.793-3.764-6.055-3.764
	c-1.263,0-4.379,0.367-6.056,3.764l-50.101,101.516c-4.92,9.969-14.424,16.873-25.424,18.471L13.397,311.85
	c-3.749,0.544-5.062,3.395-5.451,4.596c-0.39,1.201-1.005,4.277,1.709,6.923l81.065,79.019c7.96,7.759,11.59,18.931,9.711,29.886
	L81.293,543.851c-0.64,3.734,1.665,5.863,2.686,6.604c1.021,0.742,3.759,2.276,7.112,0.513l100.201-52.678
	C196.211,495.707,201.608,494.413,207.005,494.413z"/>
<path style="fill:#FFFFFF;" d="M342.498,207.79c-2.753,0-5.529-0.839-7.928-2.58c-6.034-4.384-7.372-12.831-2.988-18.865
	l14.337-19.732c4.384-6.033,12.829-7.372,18.865-2.988c6.034,4.384,7.372,12.831,2.988,18.865l-14.337,19.732
	C350.793,205.859,346.675,207.79,342.498,207.79z"/>
<path style="fill:#FFFFFF;" d="M71.447,207.712c-4.177,0-8.295-1.93-10.939-5.569l-14.337-19.732
	c-4.384-6.035-3.047-14.481,2.988-18.865c6.036-4.383,14.483-3.044,18.865,2.988l14.337,19.732
	c4.384,6.035,3.047,14.481-2.988,18.865C76.978,206.873,74.2,207.712,71.447,207.712z"/>
<path style="fill:#FFFFFF;" d="M-35.493,473.052c-5.693,0-10.987-3.628-12.842-9.337c-2.305-7.093,1.576-14.714,8.671-17.019
	l23.197-7.538c7.095-2.306,14.714,1.577,17.019,8.671c2.305,7.095-1.576,14.714-8.671,17.019l-23.197,7.538
	C-32.702,472.837-34.11,473.052-35.493,473.052z"/>
<path style="fill:#FFFFFF;" d="M207.006,649.19c-7.459,0-13.506-6.047-13.506-13.506v-24.392c0-7.459,6.047-13.506,13.506-13.506
	s13.506,6.047,13.506,13.506v24.392C220.512,643.143,214.465,649.19,207.006,649.19z"/>
<path style="fill:#FFFFFF;" d="M449.493,473.071c-1.383,0-2.789-0.215-4.176-0.664l-23.197-7.538
	c-7.095-2.306-10.976-9.924-8.671-17.019c2.306-7.095,9.927-10.975,17.019-8.672l23.197,7.538
	c7.095,2.305,10.976,9.924,8.671,17.019C460.481,469.442,455.187,473.071,449.493,473.071z"/>
</svg>
