<?xml version="1.0" encoding="iso-8859-1"?>
<!-- Generator: Adobe Illustrator 22.1.0, SVG Export Plug-In . SVG Version: 6.00 Build 0)  -->
<svg version="1.1" id="&#x421;&#x43B;&#x43E;&#x439;_1"
	 xmlns="http://www.w3.org/2000/svg" xmlns:xlink="http://www.w3.org/1999/xlink" x="0px" y="0px" viewBox="0 0 32 32"
	 style="enable-background:new 0 0 32 32;" xml:space="preserve">
<g>
	<path d="M16,0C7.18,0,0,7.18,0,16s7.18,16,16,16c8.824,0,16-7.18,16-16S24.824,0,16,0L16,0z M23.055,14.301l-6.852,6.851
		c-0.476,0.477-1.101,0.715-1.726,0.715c-0.622,0-1.247-0.238-1.723-0.715l-3.809-3.808c-0.949-0.953-0.949-2.496,0-3.449
		c0.953-0.954,2.5-0.954,3.453,0l2.079,2.078l5.128-5.125c0.95-0.95,2.497-0.95,3.45,0C24.008,11.801,24.008,13.348,23.055,14.301
		L23.055,14.301z M23.055,14.301"/>
</g>
</svg>
