<?xml version="1.0" encoding="iso-8859-1"?>
<!-- Generator: Adobe Illustrator 22.1.0, SVG Export Plug-In . SVG Version: 6.00 Build 0)  -->
<svg version="1.1" id="&#x421;&#x43B;&#x43E;&#x439;_1"
	 xmlns="http://www.w3.org/2000/svg" xmlns:xlink="http://www.w3.org/1999/xlink" x="0px" y="0px" viewBox="0 0 34.852 34"
	 style="enable-background:new 0 0 34.852 34;" xml:space="preserve">
<g>
	<g>
		<defs>
			<rect id="SVGID_1_" width="34.8" height="34"/>
		</defs>
		<clipPath id="SVGID_2_">
			<use xlink:href="#SVGID_1_"  style="overflow:visible;"/>
		</clipPath>
		<path style="clip-path:url(#SVGID_2_);" d="M18.309,0C11.547,0,5.742,4.145,3.18,10.055L1.477,9.371
			C1.07,9.207,0.609,9.305,0.309,9.618c-0.305,0.312-0.395,0.773-0.223,1.175l2.711,6.336c0.113,0.262,0.324,0.469,0.59,0.575
			c0.265,0.105,0.562,0.105,0.824-0.008l6.336-2.715c0.398-0.168,0.656-0.563,0.652-1c-0.008-0.434-0.273-0.82-0.676-0.985
			l-2.148-0.859c1.73-3.851,5.523-6.535,9.934-6.535c6.031,0,10.941,5.016,10.941,11.184c0,6.171-4.91,11.187-10.941,11.187
			c-2.68,0-5.133-0.992-7.032-2.633c-1.109-0.961-2.761-0.914-3.797,0.129l-0.039,0.039c-1.136,1.145-1.054,3.012,0.168,4.067
			c2.883,2.492,6.621,4,10.7,4c9.121,0,16.543-7.532,16.543-16.789C34.852,7.532,27.43,0,18.309,0L18.309,0z M18.309,0"/>
	</g>
</g>
</svg>
