<?xml version="1.0" encoding="utf-8"?>
<!-- Generator: Adobe Illustrator 22.1.0, SVG Export Plug-In . SVG Version: 6.00 Build 0)  -->
<svg version="1.1" id="Capa_1" xmlns="http://www.w3.org/2000/svg" xmlns:xlink="http://www.w3.org/1999/xlink" x="0px" y="0px"
	 viewBox="0 0 386.7 512" style="enable-background:new 0 0 386.7 512;" xml:space="preserve">
<style type="text/css">
	.st0{fill:#FFFFFF;}
	.st1{fill:#F5DC33;}
</style>
<path class="st0" d="M189.8,268.2L189.8,268.2L189.8,268.2c8.1,0,16.1-2.7,22.6-7.6c6.7-5.1,11.4-12,13.6-20.2
	c1.1-4-1.3-8.1-5.3-9.2c-0.6-0.2-1.3-0.3-1.9-0.3c-3.4,0-6.4,2.3-7.2,5.6c-2.6,9.8-11.6,16.7-21.7,16.7c-2,0-3.9-0.3-5.8-0.8
	L31.7,211.6C21.9,209,15,200,15,189.9c0-2,0.3-3.9,0.8-5.8L56.6,31.7C59.2,21.9,68.1,15,78.3,15c2,0,3.9,0.3,5.8,0.8l152.3,40.8
	c9.8,2.6,16.7,11.6,16.7,21.7c0,2-0.3,3.9-0.8,5.8l-33.1,123.3c-0.5,1.9-0.3,4,0.8,5.7c1,1.7,2.6,3,4.6,3.5c0.6,0.2,1.3,0.3,1.9,0.3
	c3.4,0,6.4-2.3,7.2-5.6c0,0,0,0,0,0l33-123.3c0.9-3.2,1.3-6.5,1.3-9.7c0-8.1-2.7-16.1-7.6-22.6c-5.1-6.7-12-11.4-20.2-13.6L88,1.3
	C84.8,0.4,81.6,0,78.3,0c-8.1,0-16.1,2.7-22.6,7.6C49,12.7,44.3,19.7,42.1,27.8L1.3,180.1c-0.9,3.2-1.3,6.5-1.3,9.7
	c0,8.1,2.7,16.1,7.6,22.6c5.1,6.7,12,11.4,20.2,13.6l152.3,40.8C183.3,267.7,186.6,268.2,189.8,268.2z"/>
<path class="st1" d="M385.5,424C385.4,424,385.4,424,385.5,424c-0.9-3.3-3.9-5.6-7.3-5.6c-0.6,0-1.3,0.1-1.9,0.3
	c-1.9,0.5-3.5,1.8-4.5,3.5c-1,1.7-1.3,3.8-0.8,5.7c0.5,1.9,0.8,3.9,0.8,5.8c0,10.2-6.9,19.1-16.7,21.7l-152.3,40.8
	c-1.9,0.5-3.9,0.8-5.8,0.8c-10.2,0-19.1-6.9-21.7-16.7L134.4,328c-0.5-1.9-0.8-3.9-0.8-5.8c0-10.2,6.9-19.1,16.7-21.7l152.3-40.8
	c1.9-0.5,3.9-0.8,5.8-0.8c10.2,0,19.1,6.9,21.7,16.7l33.1,123.3c0.9,3.3,3.9,5.6,7.2,5.6c0.6,0,1.3-0.1,1.9-0.3
	c4-1.1,6.4-5.2,5.3-9.2c0,0,0,0,0,0l-33-123.3c-2.2-8.1-6.9-15.1-13.6-20.2c-6.5-4.9-14.5-7.6-22.6-7.6c-3.3,0-6.5,0.4-9.7,1.3
	l-152.3,40.8c-8.1,2.2-15.1,6.9-20.2,13.6c-4.9,6.5-7.6,14.5-7.6,22.6c0,3.3,0.4,6.6,1.3,9.7l40.8,152.3c2.2,8.1,6.9,15.1,13.6,20.2
	c6.5,4.9,14.5,7.6,22.6,7.6h0c3.3,0,6.5-0.4,9.7-1.3l152.3-40.8c8.1-2.2,15.1-6.9,20.2-13.6c4.9-6.5,7.6-14.5,7.6-22.6
	C386.7,430.4,386.3,427.2,385.5,424z"/>
<path class="st0" d="M292.2,351.8c16-4.3,25.5-20.8,21.2-36.7l0,0c-4.3-16-20.8-25.5-36.7-21.2c-7.7,2.1-14.2,7-18.2,14
	c-4,6.9-5.1,15-3,22.8c2.1,7.7,7,14.2,14,18.2c4.6,2.7,9.8,4,15,4C287,352.8,289.7,352.5,292.2,351.8z M270,326.7
	c-1-3.9-0.5-7.9,1.5-11.4c2-3.5,5.2-6,9.1-7c1.3-0.3,2.6-0.5,3.9-0.5c6.6,0,12.7,4.4,14.5,11.1c2.1,8-2.6,16.2-10.6,18.4
	c-3.9,1-7.9,0.5-11.4-1.5C273.5,333.8,271,330.6,270,326.7z"/>
<path class="st0" d="M213.1,404.1L213.1,404.1c-16,4.3-25.5,20.8-21.2,36.7c2.1,7.7,7,14.2,14,18.2c4.6,2.7,9.8,4,15,4
	c2.6,0,5.2-0.3,7.8-1c16-4.3,25.5-20.8,21.2-36.7C245.5,409.3,229.1,399.8,213.1,404.1z M224.7,447.5c-3.9,1-7.9,0.5-11.4-1.5
	c-3.5-2-6-5.2-7-9.1c-2.1-8,2.6-16.2,10.6-18.4l0,0c8-2.1,16.2,2.6,18.4,10.6C237.5,437.1,232.7,445.4,224.7,447.5z"/>
<path class="st0" d="M282.7,377.9c0-16.5-13.5-30-30-30s-30,13.5-30,30c0,16.5,13.5,30,30,30S282.7,394.5,282.7,377.9z M237.7,377.9
	c0-8.3,6.7-15,15-15s15,6.7,15,15c0,8.3-6.7,15-15,15S237.7,386.2,237.7,377.9z"/>
<path class="st1" d="M131.2,86.7c2.1-7.7,1-15.8-3-22.8c-4-6.9-10.5-11.9-18.2-14c-16-4.3-32.5,5.2-36.7,21.2
	c-4.3,16,5.2,32.5,21.2,36.7c2.6,0.7,5.2,1,7.8,1c5.2,0,10.3-1.4,15-4C124.2,100.9,129.2,94.5,131.2,86.7z M109.8,92
	c-3.5,2-7.5,2.5-11.4,1.5c-8-2.1-12.7-10.4-10.6-18.4c1.8-6.7,7.9-11.1,14.5-11.1c1.3,0,2.6,0.2,3.9,0.5c0,0,0,0,0,0
	c3.9,1,7.1,3.5,9.1,7c2,3.5,2.5,7.5,1.5,11.4C115.7,86.7,113.2,90,109.8,92z"/>
<path class="st1" d="M218.2,110c4.3-16-5.2-32.5-21.2-36.7c-16-4.3-32.5,5.2-36.7,21.2c-4.3,16,5.2,32.5,21.2,36.7
	c2.6,0.7,5.2,1,7.8,1C202.4,132.3,214.6,123.4,218.2,110z M203.7,106.1c-2.1,8-10.4,12.7-18.4,10.6c-8-2.1-12.7-10.4-10.6-18.4
	c1.8-6.7,7.9-11.1,14.5-11.1c1.3,0,2.6,0.2,3.9,0.5C201.1,89.9,205.8,98.2,203.7,106.1z"/>
<path class="st1" d="M86.7,136.9c-7.7-2.1-15.8-1-22.8,3c-6.9,4-11.9,10.5-14,18.2c-2.1,7.7-1,15.8,3,22.8s10.5,11.9,18.2,14
	c2.6,0.7,5.2,1,7.8,1c13.2,0,25.4-8.9,29-22.2C112.2,157.7,102.7,141.2,86.7,136.9z M93.5,169.8c-2.1,8-10.4,12.7-18.4,10.6
	c-3.9-1-7.1-3.5-9.1-7c-2-3.5-2.5-7.5-1.5-11.4c1-3.9,3.5-7.1,7-9.1c2.3-1.3,4.9-2,7.5-2c1.3,0,2.6,0.2,3.9,0.5
	C90.8,153.6,95.6,161.8,93.5,169.8z"/>
<path class="st1" d="M173.7,160.2L173.7,160.2c-16-4.3-32.5,5.2-36.7,21.2c-4.3,16,5.2,32.5,21.2,36.7c2.6,0.7,5.2,1,7.8,1
	c5.2,0,10.3-1.4,15-4c6.9-4,11.9-10.5,14-18.2C199.2,181,189.6,164.5,173.7,160.2z M180.4,193.1c-1,3.9-3.5,7.1-7,9.1
	c-3.5,2-7.5,2.5-11.4,1.5c-8-2.1-12.7-10.4-10.6-18.4c1.8-6.7,7.9-11.1,14.5-11.1c1.3,0,2.6,0.2,3.9,0.5h0
	C177.8,176.9,182.5,185.1,180.4,193.1z"/>
</svg>
